<svg xmlns="http://www.w3.org/2000/svg" xmlns:xlink="http://www.w3.org/1999/xlink" version="1.1" x="0px" y="0px" viewBox="0 0 91 91"  xml:space="preserve"><g><path d="M39.9,19.6c0.3-0.6,0.7-1.2,1-1.8c0.4-0.7,0.9-1.4,1.1-2.1c0.2-0.9-0.2-2.1-1-2.5c-0.9-0.5-1.9-0.3-2.7,0.3   c-0.6,0.5-1,1.3-1.4,1.9s-0.8,1.2-1.2,1.7c-0.7,1.1-0.2,2.8,0.9,3.3C37.8,21.1,39.3,20.8,39.9,19.6z"></path><path d="M31.6,40.9c-0.5,0.1-0.9,0.5-1,1c-0.2,0.8,0.3,1.6,0.3,2.4c0,0.2,0,0.5,0,0.7s0,0.7-0.1,0.8c-0.3,1.2,0.4,2.5,1.6,2.9   c1.2,0.3,2.5-0.4,2.9-1.6c0.4-1.5,0.3-2.9-0.4-4.2C34.3,41.7,33.1,40.5,31.6,40.9z"></path><path d="M43.3,23c1.6,0.5,3.1-1.5,3.8-2.7c1.1-1.7,1.9-3.7,2-5.8c0.1-1.9-3-2.3-3.3-0.5c-0.4,2.1-0.9,3.9-2,5.8   C43.5,20.3,41.9,22.5,43.3,23z"></path><path d="M49,25.9c2.7-0.7,4.1-4.6,4.6-7s-3-2.9-3.3-0.5c-0.2,1.2-0.5,2.5-1,3.6c-0.5,1-1.1,1.9-1.2,3.1C48,25.6,48.6,26,49,25.9z"></path><path d="M87.2,27.7C91,19.9,90.6,11.4,88,3.4c-0.3-1.1-1.7-2.1-2.9-1.6c-7.9,3.3-15.2,7.7-18.6,16c-2.3,5.9-4.4,15.8-0.8,21.9   c-2.2-1.4-4.3-3.2-6.5-4.8c2.9-4.3,3.9-8.6,2.9-13.7s-3.9-8.6-8-11.8C47.2,4,36.3,3.4,31,11.5c-4.9,7.5-1.9,16,3.7,22   c-4.5,0.2-8.9,2.9-10.3,7.4C24.2,41.6,24,42.3,24,43C13.1,42.1,5,51.2,0.9,60.5c-0.6,1.3,0.4,2.7,1.8,2.4c3.8-0.7,7.5,2.9,11.1,3.7   c3.4,0.8,7.1,0.9,10.5,0.3c5.3-0.9,9.8-3.7,12.7-8.1c2.8,0.8,5.9,1.1,8.8,0.8c-2.2,4.2-2.9,8.8-1.4,13.8c1.9,6,6.1,10.6,10.2,15.2   c0.6,0.7,2.1,0.8,2.7,0c3.3-3.9,6.5-7.7,8.9-12.2c1.6-3,3-6.1,2.8-9.5c-0.6-7.5-4.2-14.1-11.2-17.1c0.1-0.3,0.1-0.6,0.1-0.9   c2,0.4,4.3,0.3,6.1,0.1c3.9-0.3,8-0.9,11.6-2.3c0.1,0,0.2-0.1,0.2-0.1c4.9,0.1,10.3-1,13.6-4c1.4-1.3-0.1-3.8-1.9-3.2   c-2.5,0.8-4.7,2.1-7.4,2.6c-2.3,0.4-4.6,0.6-7,0.4C78.9,38.6,84.2,33.9,87.2,27.7z M34.3,13.9c4.2-6.5,13-5,18-0.6   c2.8,2.4,4.9,4.8,5.7,8.5c0.9,4.1,0,7.3-2.2,10.7c-2.8,1.9-5.5,3.2-9,2.8c-2.8-0.3-6.2-1.7-8.7-3.4C33.1,27.2,30.5,19.9,34.3,13.9z    M20.4,64c-3.9,0.1-7-0.8-10.4-2.5c-1.7-0.8-3.4-1.6-5.1-1.8c1.8-3.6,4-7,7-9.5c2.2-1.8,4.7-2.9,7.5-3.5c1.5-0.3,3.1-0.4,4.7-0.7   c0.2,1.7,0.8,3.3,1.6,4.7c-0.8,0.2-1.6,0.4-2.4,0.6c-2.6-0.5-5.4-1.4-7.8-0.4c-0.6,0.2-0.6,1,0,1.2c0.7,0.3,1.5,0.5,2.2,0.8   c-3.1,1.1-6.1,2.4-8.4,4.3c-0.8,0.6,0.1,1.7,0.9,1.6c3.1-0.7,6-2.2,9-3.1c-0.5,0.6-1,1.2-1.5,1.9c-0.6,1-1.2,2-1.2,3.2   c0,0.6,0.3,2.1,1.3,1.7c1.3-0.5,1.8-2.3,2.6-3.3c1.4-1.8,3.3-3.2,5.4-4.1c0.4-0.2,0.7-0.4,0.9-0.7c0.6,0,1.2,0,1.7,0l0,0   c1.5,1.4,3.2,2.5,5,3.3C30.5,61.8,25.6,63.9,20.4,64z M34.6,54.1c-1.7-0.8-3.3-1.9-4.5-3.3c-0.1-0.1-0.1-0.2-0.2-0.3   c-1.8-2.2-2.9-4.9-2.3-8c1-5.2,6.1-5.8,10.6-6c0.5,1.3,0.9,2.7,1.1,4.2c0.1,1.1,0.1,2.3,0.4,3.4c0.1,0.5,0.9,0.6,1.2,0.2   c1-1.7,1.3-3.7,1.1-5.6c0.6,0.2,1.2,0.5,1.7,0.7l0,0c0.7,1.2,1.4,2,1.5,3.5c0.1,1,0.1,2,0.4,3c0.1,0.6,1.1,0.8,1.4,0.2   c0.7-1.3,1.3-2.6,1.3-4.1c0-0.6-0.1-1.2-0.3-1.8c0.3,0,0.6,0,1,0c0.1,0.1,0.2,0.2,0.3,0.2c5,2.7,6.3,9.5,1.7,13.3   C46.7,57.3,39.3,56.4,34.6,54.1z M64.4,68.6c-0.3,2.9-2.2,5.9-3.7,8.4s-3.2,4.9-4.9,7.3c-3.1-3.2-5.9-6.9-7.5-11.1   c-1.8-4.6-1.4-9.5,0.1-14c1.6-0.4,3.1-1,4.5-1.9c-0.2,1.9-0.3,3.9-0.3,5.8c-1.7,2.6-3,5.5-3.3,8.6c0,0.4,0.6,0.7,0.9,0.4   c0.9-1.1,1.7-2.2,2.4-3.3c0.1,3.3,0,7.5,2.3,9.9c0.5,0.5,1.6,0.3,1.7-0.5c0.6-3.4-0.4-7.3-0.4-10.8c0-0.3,0-0.6,0-0.9   c0.1,0.1,0.2,0.2,0.3,0.3c1,1.1,2.3,2.7,3.8,3.1c0.8,0.3,1.4-0.5,1.3-1.3c-0.3-1.5-1.6-2.7-2.6-3.8c-0.9-1.1-1.7-2.2-2.5-3.3   c0.2-2.3,0.6-4.5,0.8-6.8C62.2,57.1,65,63.3,64.4,68.6z M57.9,45.6c-0.5-2.6-1.8-5-3.8-6.8c0.9-0.5,1.7-1.1,2.5-1.8   c2.4,3.3,6,6,9.8,7.7c-0.7,0.1-1.4,0.3-2.1,0.4C62.2,45.4,60,45.4,57.9,45.6z M72.6,37.4c1.3-3.6,2.8-7,4.3-10.5   c1.8-1.7,3.9-3.2,6-4.6c0.9-0.6,0.3-2.2-0.8-1.8c-1,0.5-2.1,1-3.1,1.5c1.4-3.3,2.8-6.6,3.9-10c0.2-0.5-0.6-0.9-0.9-0.5   c-2.2,2.4-4,4.8-5.6,7.4c-0.2-1-0.3-2-0.3-3c0-1.4-2-1.4-2.2,0c-0.2,1.7-0.1,3.3,0.2,5c0.1,0.5,0.2,1,0.3,1.5   c-0.4,0.7-0.7,1.4-1.1,2.1c-0.3,0.5-0.5,1.1-0.8,1.6c-0.2-1-0.4-2-0.6-3.1c-0.1-0.9-1.5-0.6-1.5,0.2c-0.1,2.2-0.1,4.5,0.5,6.6   c-1,2.4-1.9,4.9-2.7,7.3c-2-5.8-0.1-13.7,2.3-18.8c2.8-5.9,8.1-8.7,13.7-11.1C85.9,13.5,86,20,82.9,26   C80.5,30.6,76.7,34.3,72.6,37.4z"></path></g></svg>