<svg xmlns="http://www.w3.org/2000/svg" viewBox="0 0 100 100" x="0px" y="0px"><title>ЧАЙ КОФЕ разобранные ИКОНКИ НОУН</title><path d="M73,31.583V26.91229A16.73789,16.73789,0,0,0,88,10.28564V10a1,1,0,0,0-1-1H17.18457A4.189,4.189,0,0,0,13,13.18457V86.81543A4.189,4.189,0,0,0,17.18457,91H21v1.90869A2.09346,2.09346,0,0,0,23.09131,95h6.81738A2.09346,2.09346,0,0,0,32,92.90869V91H70v1.90869A2.09346,2.09346,0,0,0,72.09131,95h6.81738A2.09346,2.09346,0,0,0,81,92.90869V91h6a1,1,0,0,0,1-1v-.12744A15.88963,15.88963,0,0,0,75,74.27374V72.61182A3.61574,3.61574,0,0,0,71.38818,69h-.66113a5.49547,5.49547,0,0,0,1.2497-3.06287A6.85779,6.85779,0,0,0,72,52.56427V51.17236A2.17494,2.17494,0,0,0,69.82764,49H53.17236A2.17494,2.17494,0,0,0,51,51.17236V54a1,1,0,0,0,2,0V51.17236A.17234.17234,0,0,1,53.17236,51H69.82764A.17234.17234,0,0,1,70,51.17236V65.478A3.52613,3.52613,0,0,1,66.478,69H56.522A3.52613,3.52613,0,0,1,53,65.478V58a1,1,0,0,0-2,0v7.478A5.496,5.496,0,0,0,52.273,69H48V27h3v4.583A2.42,2.42,0,0,0,53.417,34H54v3.11084A2.00966,2.00966,0,0,0,56.14893,39H59v1.44629A1.58176,1.58176,0,0,0,60.605,42h3.79A1.58176,1.58176,0,0,0,66,40.44629V39h1.85107A2.00966,2.00966,0,0,0,70,37.11084V36h5.00415a2.0377,2.0377,0,0,0,1.80786,2.081l9.1709.54249c.03467.00244.06934.00341.104.00341a1.79837,1.79837,0,0,0,1.23829-.50341A2.237,2.237,0,0,0,88,36.49463V33.96484a2.23808,2.23808,0,0,0-.6748-1.62939,1.78574,1.78574,0,0,0-1.34278-.5l-9.17041.54248A1.977,1.977,0,0,0,75.061,34H70.583A2.42,2.42,0,0,0,73,31.583Zm2.32275,27.666A4.69234,4.69234,0,0,1,72,63.88916V54.6084A4.69257,4.69257,0,0,1,75.32275,59.249ZM77,34.50732a.35007.35007,0,0,1,.02637-.13867l8.95263-.52978a.357.357,0,0,1,.021.126v2.52979a.35194.35194,0,0,1-.021.12549l-8.95263-.52979A.34923.34923,0,0,1,77,35.95215ZM30,92.90869A.09149.09149,0,0,1,29.90869,93H23.09131A.09149.09149,0,0,1,23,92.90869V91h7Zm49,0A.09149.09149,0,0,1,78.90869,93H72.09131A.09149.09149,0,0,1,72,92.90869V91h7ZM56.522,71H71.38818A1.61375,1.61375,0,0,1,73,72.61182v1.43237C72.70935,74.02826,72.42194,74,72.12744,74H48V71ZM47,25a1,1,0,0,0-1,1V75a1,1,0,0,0,1,1H72.12744A13.89076,13.89076,0,0,1,85.97266,89H17.18457A2.187,2.187,0,0,1,15,86.81543V13.18457A2.187,2.187,0,0,1,17.18457,11H85.98291A14.73321,14.73321,0,0,1,71.28564,25ZM64,40H61V39h3Zm4-3.0249A.43144.43144,0,0,1,67.85107,37H56.14893A.43144.43144,0,0,1,56,36.9751V34H68ZM70.583,32H53.417A.4174.4174,0,0,1,53,31.583V27H71v4.583A.4174.4174,0,0,1,70.583,32ZM26.97021,42H21.02979A2.03219,2.03219,0,0,0,19,44.02979v2.94042A2.03219,2.03219,0,0,0,21.02979,49h5.94042A2.03219,2.03219,0,0,0,29,46.97021V44.02979A2.03219,2.03219,0,0,0,26.97021,42Zm0,5S21.02979,47,21,46.97021L21.02979,44,27,44.02979ZM42,27.93994v8.12012A2.94327,2.94327,0,0,1,39.06006,39H21.93994A2.94327,2.94327,0,0,1,19,36.06006V27.93994A2.94327,2.94327,0,0,1,21.93994,25H32a1,1,0,0,1,0,2H21.93994A.94129.94129,0,0,0,21,27.93994v8.12012A.94129.94129,0,0,0,21.93994,37H39.06006A.94128.94128,0,0,0,40,36.06006V27.93994A.94129.94129,0,0,0,39.06006,27H36a1,1,0,0,1,0-2h3.06006A2.94327,2.94327,0,0,1,42,27.93994ZM39,30a1,1,0,0,1-1,1H32a1,1,0,0,1,0-2h6A1,1,0,0,1,39,30Zm0,4a1,1,0,0,1-1,1H32a1,1,0,0,1,0-2h6A1,1,0,0,1,39,34ZM23,32a3,3,0,1,0,3-3A3.00328,3.00328,0,0,0,23,32Zm4,0a1,1,0,1,1-1-1A1.0013,1.0013,0,0,1,27,32Z"></path></svg>