<svg xmlns="http://www.w3.org/2000/svg" xmlns:xlink="http://www.w3.org/1999/xlink" version="1.1" x="0px" y="0px" viewBox="0 0 100 100" enable-background="new 0 0 100 100" xml:space="preserve"><g><path d="M50.1,73.7c-3.5,0-7-0.8-10.2-2.3C29.5,66.5,24.2,54.3,27.4,43c0.1-0.4,0.5-0.6,0.8-0.5c0.4,0.1,0.6,0.5,0.5,0.8   c-3,10.7,2,22.2,11.8,26.8c5.4,2.6,11.5,2.9,17.2,0.9c5.6-2,10.2-6.1,12.7-11.5c5.3-11.2,0.5-24.5-10.7-29.9   c-9.7-4.6-21.8-1.3-28.1,7.6c-0.2,0.3-0.6,0.4-0.9,0.2c-0.3-0.2-0.4-0.6-0.2-0.9c6.7-9.5,19.5-13,29.8-8.1   c11.9,5.6,16.9,19.8,11.3,31.6c-2.7,5.7-7.5,10-13.5,12.2C55.5,73.2,52.8,73.7,50.1,73.7"></path><path d="M50,35.8c-5.4,0-10.5,3.2-12.8,8.1c-3.3,7.1-0.3,15.5,6.8,18.9c1.9,0.9,4,1.4,6.1,1.4c5.4,0,10.5-3.2,12.8-8.1   c1.6-3.4,1.8-7.3,0.5-10.8c-1.3-3.6-3.9-6.4-7.3-8.1C54.2,36.2,52.1,35.8,50,35.8 M50.1,65.4L50.1,65.4c-2.3,0-4.6-0.5-6.7-1.5   C35.7,60.3,32.4,51,36,43.3c2.5-5.4,8-8.8,14-8.8c2.3,0,4.6,0.5,6.7,1.5c3.7,1.8,6.6,4.9,8,8.8c1.4,3.9,1.2,8.1-0.6,11.8   C61.5,62,56,65.4,50.1,65.4"></path><path d="M50,38.6c-4.4,0-8.4,2.5-10.3,6.5c-1.3,2.7-1.5,5.8-0.4,8.7c1,2.9,3.1,5.2,5.9,6.5c1.5,0.7,3.2,1.1,4.9,1.1   c4.4,0,8.4-2.5,10.3-6.5c2.7-5.7,0.3-12.5-5.4-15.2C53.4,38.9,51.7,38.6,50,38.6 M50.1,62.2L50.1,62.2c-1.8,0-3.6-0.4-5.3-1.2   c-3-1.4-5.2-3.9-6.3-7c-1.1-3.1-0.9-6.4,0.5-9.4c2-4.2,6.4-7,11.1-7c1.8,0,3.6,0.4,5.3,1.2c6.1,2.9,8.7,10.2,5.8,16.3   C59.1,59.5,54.8,62.2,50.1,62.2"></path><path d="M41.3,46.6C41.3,46.6,41.3,46.6,41.3,46.6c-0.2-0.1-0.3-0.2-0.2-0.3c1.2-2.5,3.2-4.3,5.8-5.2c2.6-0.9,5.4-0.8,7.8,0.4   c0.1,0.1,0.2,0.2,0.1,0.3c-0.1,0.1-0.2,0.2-0.3,0.1c-2.4-1.1-5-1.3-7.5-0.4c-2.5,0.9-4.4,2.7-5.6,5C41.5,46.6,41.4,46.6,41.3,46.6"></path><path d="M41,48.1c-0.1,0.1-0.2,0.2-0.4,0.1c-0.1-0.1-0.2-0.2-0.1-0.4c0.1-0.1,0.2-0.2,0.4-0.1C41,47.8,41.1,47.9,41,48.1"></path><path d="M35.6,46.7c-0.1,0-0.1,0-0.2,0l-7.3-3.5c-1.6-0.7-2.3-2.4-1.7-3.8l0.5-1.1c0.6-1.4,2.4-1.9,4-1.1l7.3,3.5   c0.2,0.1,0.3,0.4,0.2,0.6c-0.1,0.2-0.4,0.3-0.6,0.2L30.6,38c-1.1-0.5-2.4-0.2-2.8,0.7l-0.5,1.1c-0.4,0.9,0.1,2.1,1.3,2.6l7.3,3.5   c0.2,0.1,0.3,0.4,0.2,0.6C35.9,46.6,35.7,46.7,35.6,46.7"></path></g></svg>