<svg xmlns="http://www.w3.org/2000/svg" xmlns:xlink="http://www.w3.org/1999/xlink" version="1.1" x="0px" y="0px" viewBox="0 0 100 100" enable-background="new 0 0 100 100" xml:space="preserve"><path d="M40.153,9.919c16.602,0,30.061,6.223,30.061,13.899v8.096c2.061-2.24,4.627-3.571,7.411-3.571  c6.784,0,12.283,7.887,12.283,17.616s-5.499,17.617-12.283,17.617c-2.784,0-5.351-1.331-7.411-3.571v16.177  c0,7.677-13.459,13.899-30.061,13.899s-30.061-6.223-30.061-13.899V23.818C10.092,16.142,23.551,9.919,40.153,9.919 M77.625,57.758  c1.853,0,3.354-1.867,3.913-2.669c1.622-2.326,2.552-5.654,2.552-9.129c0-3.475-0.93-6.803-2.552-9.129  c-0.56-0.802-2.061-2.669-3.913-2.669c-1.851,0-3.352,1.867-3.912,2.669c-1.622,2.326-2.553,5.654-2.553,9.129  c0,3.476,0.931,6.803,2.553,9.129C74.273,55.891,75.774,57.758,77.625,57.758 M40.153,7.333c-8.396,0-16.331,1.53-22.341,4.31  C11.166,14.716,7.506,19.04,7.506,23.818v52.364c0,4.779,3.66,9.103,10.306,12.176c6.011,2.779,13.945,4.31,22.341,4.31  s16.331-1.53,22.341-4.31C69.14,85.284,72.8,80.961,72.8,76.182v-11.1c1.541,0.709,3.173,1.08,4.825,1.08  c4.152,0,7.989-2.226,10.808-6.267c2.619-3.757,4.062-8.707,4.062-13.936s-1.442-10.179-4.062-13.936  c-2.818-4.041-6.655-6.267-10.808-6.267c-1.652,0-3.284,0.371-4.825,1.08v-3.019c0-4.778-3.66-9.102-10.306-12.175  C56.483,8.863,48.549,7.333,40.153,7.333L40.153,7.333z M77.625,55.172c-0.282,0-1.048-0.497-1.791-1.562  c-1.308-1.875-2.088-4.734-2.088-7.65s0.78-5.775,2.088-7.649c0.743-1.066,1.509-1.562,1.791-1.562c0.284,0,1.048,0.497,1.792,1.562  c1.307,1.874,2.087,4.733,2.087,7.649c0,2.916-0.78,5.775-2.087,7.65C78.673,54.675,77.909,55.172,77.625,55.172L77.625,55.172z"></path><path d="M64.896,22.74c0-5.057-10.981-9.158-24.527-9.158c-13.545,0-24.526,4.101-24.526,9.158c0,5.058,10.981,9.159,24.526,9.159  c0.044,0,0.087-0.001,0.131-0.001c0.059,0,0.117,0.001,0.176,0.001c6.506,0,12.259-0.888,15.784-2.25  C61.625,27.97,64.896,25.499,64.896,22.74z M60.014,26.026c-0.888-2.748-9.203-4.901-19.338-4.901  c-10.479,0-19.014,2.302-19.403,5.182c-2.261-1.18-3.491-2.466-3.491-3.567c0-1.183,1.556-3.028,5.922-4.658  c4.421-1.651,10.339-2.56,16.665-2.56c13.788,0,22.588,4.275,22.588,7.218C62.956,23.598,62.13,24.805,60.014,26.026z"></path></svg>